HIERARCHY
ROOT Hips
{
	OFFSET 0.00000 0.00000 0.00000
	CHANNELS 6 Xposition Yposition Zposition Zrotation Yrotation Xrotation 
	JOINT LHipJoint
	{
		OFFSET 0 0 0
		CHANNELS 3 Zrotation Yrotation Xrotation
		JOINT LeftUpLeg
		{
			OFFSET 1.77779 -1.88989 0.48267
			CHANNELS 3 Zrotation Yrotation Xrotation
			JOINT LeftLeg
			{
				OFFSET 2.53442 -6.96327 0.00000
				CHANNELS 3 Zrotation Yrotation Xrotation
				JOINT LeftFoot
				{
					OFFSET 2.71068 -7.44755 0.00000
					CHANNELS 3 Zrotation Yrotation Xrotation
					JOINT LeftToeBase
					{
						OFFSET 0.17992 -0.49431 2.22524
						CHANNELS 3 Zrotation Yrotation Xrotation
						End Site
						{
							OFFSET 0.00000 -0.00000 1.14687
						}
					}
				}
			}
		}
	}
	JOINT RHipJoint
	{
		OFFSET 0 0 0
		CHANNELS 3 Zrotation Yrotation Xrotation
		JOINT RightUpLeg
		{
			OFFSET -1.58469 -1.88989 0.48267
			CHANNELS 3 Zrotation Yrotation Xrotation
			JOINT RightLeg
			{
				OFFSET -2.60386 -7.15404 0.00000
				CHANNELS 3 Zrotation Yrotation Xrotation
				JOINT RightFoot
				{
					OFFSET -2.73334 -7.50979 0.00000
					CHANNELS 3 Zrotation Yrotation Xrotation
					JOINT RightToeBase
					{
						OFFSET -0.25618 -0.70384 2.21822
						CHANNELS 3 Zrotation Yrotation Xrotation
						End Site
						{
							OFFSET -0.00000 -0.00000 1.16381
						}
					}
				}
			}
		}
	}
	JOINT LowerBack
	{
		OFFSET 0 0 0
		CHANNELS 3 Zrotation Yrotation Xrotation
		JOINT Spine
		{
			OFFSET 0.03410 2.01612 -0.22230
			CHANNELS 3 Zrotation Yrotation Xrotation
			JOINT Spine1
			{
				OFFSET 0.03465 2.03012 0.00937
				CHANNELS 3 Zrotation Yrotation Xrotation
				JOINT Neck
				{
					OFFSET 0 0 0
					CHANNELS 3 Zrotation Yrotation Xrotation
					JOINT Neck1
					{
						OFFSET -0.00219 1.70459 0.20857
						CHANNELS 3 Zrotation Yrotation Xrotation
						JOINT Head
						{
							OFFSET 0.02518 1.72339 -0.22179
							CHANNELS 3 Zrotation Yrotation Xrotation
							End Site
							{
								OFFSET 0.00282 1.74122 -0.09823
							}
						}
					}
				}
				JOINT LeftShoulder
				{
					OFFSET 0 0 0
					CHANNELS 3 Zrotation Yrotation Xrotation
					JOINT LeftArm
					{
						OFFSET 3.36358 1.00547 -0.37661
						CHANNELS 3 Zrotation Yrotation Xrotation
						JOINT LeftForeArm
						{
							OFFSET 5.06507 -0.00000 0.00000
							CHANNELS 3 Zrotation Yrotation Xrotation
							JOINT LeftHand
							{
								OFFSET 3.60196 -0.00000 0.00000
								CHANNELS 3 Zrotation Yrotation Xrotation
								JOINT LeftFingerBase
								{
									OFFSET 0 0 0
									CHANNELS 3 Zrotation Yrotation Xrotation
									JOINT LeftHandIndex1
									{
										OFFSET 0.45035 -0.00000 0.00000
										CHANNELS 3 Zrotation Yrotation Xrotation
										End Site
										{
											OFFSET 0.36308 -0.00000 0.00000
										}
									}
								}
								JOINT LThumb
								{
									OFFSET 0 0 0
									CHANNELS 3 Zrotation Yrotation Xrotation
									End Site
									{
										OFFSET 0.36862 -0.00000 0.36862
									}
								}
							}
						}
					}
				}
				JOINT RightShoulder
				{
					OFFSET 0 0 0
					CHANNELS 3 Zrotation Yrotation Xrotation
					JOINT RightArm
					{
						OFFSET -3.50159 0.80383 -0.71526
						CHANNELS 3 Zrotation Yrotation Xrotation
						JOINT RightForeArm
						{
							OFFSET -5.36394 -0.00000 0.00000
							CHANNELS 3 Zrotation Yrotation Xrotation
							JOINT RightHand
							{
								OFFSET -3.58035 -0.00000 0.00000
								CHANNELS 3 Zrotation Yrotation Xrotation
								JOINT RightFingerBase
								{
									OFFSET 0 0 0
									CHANNELS 3 Zrotation Yrotation Xrotation
									JOINT RightHandIndex1
									{
										OFFSET -0.66375 -0.00000 0.00000
										CHANNELS 3 Zrotation Yrotation Xrotation
										End Site
										{
											OFFSET -0.53513 -0.00000 0.00000
										}
									}
								}
								JOINT RThumb
								{
									OFFSET 0 0 0
									CHANNELS 3 Zrotation Yrotation Xrotation
									End Site
									{
										OFFSET -0.54330 -0.00000 0.54330
									}
								}
							}
						}
					}
				}
			}
		}
	}
}
MOTION
Frames: 14
Frame Time: .0083333
1.1604 17.9657 7.0811 2.7856 1.5527 -3.2235 0.0000 0.0000 0.0000 -27.7869 -1.2663 4.3009 1.4635 7.6455 21.6424 1.0696 -8.0080 -18.5084 0.3295 -3.6893 -10.2043 0.0000 0.0000 0.0000 16.0109 10.4918 -27.8523 -2.9077 -10.5441 30.7573 -0.0232 -7.2801 -10.8927 -0.7153 5.4048 -15.0669 -4.8735 -0.6239 8.1619 1.3858 -1.2110 1.0617 4.3179 -0.5338 -3.3442 -1.1216 -2.8577 -16.5203 0.3341 -3.7318 18.6676 -0.1553 -1.8041 8.5735 -0.0000 -0.0000 0.0000 -78.6935 1.6558 31.5124 21.0215 -31.8534 -6.0613 -0.0000 0.0000 -5.9439 28.3132 31.9359 15.9064 -7.1250 0.0000 -0.0000 -4.6155 65.2232 -2.2585 -0.0000 -0.0000 0.0000 88.3914 -2.8420 14.1526 -16.2431 25.8492 -3.7513 0.0000 0.0000 1.8343 -14.5119 15.9394 -4.0659 7.1250 -0.0000 -0.0000 8.8358 -13.6829 6.5752
1.1523 17.9430 7.2519 2.7982 1.6690 -3.0854 0.0000 0.0000 0.0000 -27.8251 -1.1822 5.1641 1.3636 7.3910 20.8789 1.0740 -7.9465 -18.5414 0.2902 -3.4640 -9.5735 0.0000 0.0000 0.0000 15.7113 11.4454 -27.1538 -2.3458 -9.5520 27.5378 -0.1283 -7.4809 -13.1169 -0.5259 4.6472 -12.9051 -4.9208 -0.7042 8.0396 1.4182 -1.3164 0.9815 4.3879 -0.5837 -3.3459 -1.1778 -2.8619 -16.5881 0.3761 -3.7333 18.7982 -0.1345 -1.8035 8.6322 -0.0000 0.0000 0.0000 -78.6249 1.4770 31.3900 21.1535 -32.0071 -6.1311 -0.0000 0.0000 -5.9389 27.5719 31.9146 15.4319 -7.1250 0.0000 -0.0000 -5.5468 64.9906 -2.6856 -0.0000 0.0000 0.0000 88.3800 -2.9449 14.0356 -16.2412 25.8466 -3.7505 0.0000 0.0000 1.9875 -14.2073 16.0977 -4.0155 7.1250 -0.0000 -0.0000 9.0411 -13.5501 6.7576
1.1526 17.9253 7.4319 3.1359 1.9525 -2.9777 0.0000 0.0000 0.0000 -28.2696 -1.0399 6.1952 1.2790 7.1672 20.2116 1.1129 -7.6918 -18.8577 0.3833 -3.9758 -11.0087 0.0000 0.0000 0.0000 15.0209 11.9852 -26.3833 -1.8447 -8.5347 24.3504 -0.1996 -7.6469 -14.4340 -0.2976 3.5078 -9.6960 -5.1817 -0.8543 7.8136 1.3207 -1.5302 1.0162 4.4483 -0.6939 -3.1555 -1.1856 -2.8597 -16.6790 0.4130 -3.7347 18.7604 -0.1220 -1.8005 8.6366 0.0000 0.0000 0.0000 -78.4053 1.1771 31.4395 21.2984 -32.1750 -6.2081 -0.0000 0.0000 -5.9633 25.9330 31.8248 14.3825 -7.1250 0.0000 -0.0000 -7.5353 64.4396 -3.5563 0.0000 0.0000 0.0000 88.4723 -2.9743 13.9699 -16.3575 26.0030 -3.8013 0.0000 0.0000 2.2431 -14.0053 15.4783 -3.8083 7.1250 -0.0000 -0.0000 9.1718 -14.1944 6.7312
1.1457 17.9095 7.6049 3.3061 2.0293 -2.7707 0.0000 0.0000 0.0000 -28.4178 -0.6913 6.9008 1.2091 6.9757 19.6433 1.1387 -7.6567 -19.0727 0.4523 -4.3147 -11.9638 0.0000 0.0000 0.0000 14.3483 13.2061 -25.5717 -1.4082 -7.5058 21.2229 -0.1199 -8.4796 -14.1676 -0.3905 4.0129 -11.1128 -5.3547 -0.9346 7.5133 1.2854 -1.6380 0.9503 4.5121 -0.7480 -3.0401 -1.1603 -2.8644 -16.4608 0.4146 -3.7497 18.6574 -0.1231 -1.8072 8.5620 0.0000 -0.0000 0.0000 -78.2253 0.9975 31.4681 21.2277 -32.0931 -6.1704 -0.0000 0.0000 -5.9611 24.7272 30.4013 13.1186 -7.1250 0.0000 -0.0000 -8.0705 62.6636 -3.4751 0.0000 -0.0000 0.0000 88.5157 -3.0694 13.8223 -16.2623 25.8751 -3.7597 0.0000 0.0000 2.3325 -14.3971 15.5745 -3.9427 7.1250 -0.0000 -0.0000 8.9093 -14.0631 6.5587
1.1322 17.8928 7.7696 3.1953 1.9916 -2.5258 0.0000 0.0000 0.0000 -28.1938 -0.4189 7.4069 1.1400 6.7805 19.0667 1.1227 -7.8932 -18.9501 0.3394 -3.7435 -10.3561 0.0000 0.0000 0.0000 13.9173 14.8725 -24.8008 -1.0594 -6.5442 18.3719 -0.0435 -9.6454 -14.4533 -0.5520 4.7595 -13.2239 -5.3134 -0.9870 7.2545 1.3682 -1.6901 0.8352 4.5745 -0.7726 -3.0078 -1.2397 -2.8346 -16.2269 0.4397 -3.6958 18.5859 -0.0909 -1.7864 8.4976 -0.0000 0.0000 0.0000 -78.1647 1.1409 31.4084 21.4680 -32.3706 -6.2987 -0.0000 0.0000 -5.7976 24.6712 30.0591 12.9571 -7.1250 0.0000 -0.0000 -7.9276 62.2999 -3.3453 -0.0000 0.0000 0.0000 88.4680 -3.2136 13.6577 -16.2426 25.8485 -3.7511 0.0000 0.0000 2.4347 -14.0822 15.8584 -3.9214 7.1250 -0.0000 -0.0000 9.1227 -13.8033 6.7708
1.1194 17.8812 7.9328 3.0850 2.0313 -2.3493 0.0000 0.0000 0.0000 -27.9802 -0.1530 7.9176 1.0797 6.6046 18.5490 1.1042 -8.2009 -18.8131 0.1938 -2.8352 -7.8202 0.0000 0.0000 0.0000 13.4154 16.5535 -23.9115 -0.7817 -5.6446 15.7565 0.0027 -10.7316 -15.2394 -0.6007 4.9613 -13.7984 -5.2175 -1.0081 7.0367 1.4274 -1.6983 0.7906 4.5771 -0.7789 -2.9323 -1.3762 -2.8649 -16.1381 0.5452 -3.7264 18.5564 -0.0352 -1.8000 8.4770 -0.0000 0.0000 0.0000 -78.0975 0.9301 31.5127 21.6064 -32.5294 -6.3729 -0.0000 0.0000 -5.5790 25.2297 31.5768 13.8602 -7.1250 0.0000 -0.0000 -8.2284 63.9939 -3.8000 -0.0000 0.0000 0.0000 88.5429 -3.4185 13.4418 -16.3492 25.9919 -3.7977 0.0000 0.0000 2.5307 -13.8771 16.0734 -3.9130 7.1250 -0.0000 -0.0000 9.2613 -13.6039 6.9160
1.1081 17.8593 8.0994 3.0440 2.1452 -2.2404 0.0000 0.0000 0.0000 -27.8327 0.2513 8.4134 1.0304 6.4567 18.1156 1.0740 -8.2723 -18.5636 0.1831 -2.7560 -7.6000 0.0000 0.0000 0.0000 12.9300 17.8345 -23.0409 -0.5636 -4.8084 13.3628 -0.0146 -11.3988 -16.4288 -0.5066 4.5627 -12.6655 -5.2370 -1.0631 7.0133 1.4777 -1.7704 0.7773 4.6466 -0.8144 -2.9224 -1.3620 -2.8398 -16.2416 0.5998 -3.7044 18.4747 -0.0174 -1.7826 8.4685 0.0000 0.0000 0.0000 -78.0036 0.5013 31.6830 21.5187 -32.4288 -6.3258 -0.0000 0.0000 -5.7356 26.0569 31.6875 14.4048 -7.1250 0.0000 -0.0000 -7.2903 64.3339 -3.4222 0.0000 0.0000 0.0000 88.6086 -3.5257 13.3548 -16.4379 26.1108 -3.8367 0.0000 0.0000 2.5902 -13.9501 16.1376 -3.9496 7.1250 -0.0000 -0.0000 9.2132 -13.5326 6.8931
1.0985 17.8318 8.2797 3.1834 2.2906 -2.0877 0.0000 0.0000 0.0000 -27.9259 0.5917 8.9801 0.9826 6.3099 17.6862 1.0642 -8.0041 -18.4619 0.2815 -3.4124 -9.4292 0.0000 0.0000 0.0000 12.3147 18.7738 -22.3189 -0.4021 -4.0709 11.2761 -0.0913 -11.8267 -18.0175 -0.4384 4.2487 -11.7776 -5.4341 -1.1458 6.8560 1.4739 -1.8870 0.7997 4.7586 -0.8752 -2.7911 -1.3569 -2.8314 -16.7437 0.6746 -3.7060 18.6730 -0.0025 -1.7713 8.6273 -0.0000 0.0000 0.0000 -77.9113 0.1854 31.7118 21.4987 -32.4058 -6.3151 -0.0000 0.0000 -5.9425 26.2813 31.4376 14.4434 -7.1250 0.0000 -0.0000 -6.8501 64.1403 -3.1837 -0.0000 0.0000 0.0000 88.6320 -3.4412 13.2567 -16.4361 26.1084 -3.8359 0.0000 0.0000 2.6299 -13.9046 16.2092 -3.9531 7.1250 -0.0000 -0.0000 9.2441 -13.4643 6.9304
1.0869 17.8028 8.4526 3.3609 2.4464 -1.9622 0.0000 0.0000 0.0000 -28.0697 0.8069 9.7882 0.9289 6.1396 17.1901 1.0915 -7.8129 -18.6831 0.3342 -3.7151 -10.2765 0.0000 0.0000 0.0000 11.8109 19.3072 -21.9665 -0.3121 -3.5915 9.9302 0.0481 -12.7493 -17.5099 -0.7316 5.4649 -15.2393 -5.6630 -1.2372 6.7714 1.4775 -2.0237 0.6753 4.9031 -0.9359 -2.8485 -1.4312 -2.8578 -16.4399 0.6713 -3.7263 18.6084 0.0111 -1.7886 8.5525 -0.0000 0.0000 0.0000 -77.9230 0.2968 31.5924 21.5692 -32.4868 -6.3529 -0.0000 0.0000 -5.8342 25.6864 31.1200 13.9598 -7.1250 0.0000 -0.0000 -7.3730 63.6528 -3.3440 -0.0000 0.0000 0.0000 88.5764 -3.6098 13.1838 -16.3219 25.9551 -3.7857 0.0000 0.0000 2.6798 -13.9549 16.4697 -4.0298 7.1250 -0.0000 -0.0000 9.2130 -13.1966 6.9590
1.0734 17.7873 8.6118 3.3567 2.4473 -1.8506 0.0000 0.0000 0.0000 -28.0213 1.0453 10.7110 0.8705 5.9488 16.6360 1.1404 -7.4780 -19.0805 0.4162 -4.1409 -11.4734 0.0000 0.0000 0.0000 11.8587 19.1230 -22.3599 -0.3001 -3.5226 9.7373 0.0338 -12.5217 -17.3674 -0.7750 5.6208 -15.6881 -5.6580 -1.2553 6.8133 1.5106 -2.0521 0.5176 4.9426 -0.9398 -3.0315 -1.4247 -2.9258 -15.9897 0.4853 -3.7870 18.4765 -0.0517 -1.8396 8.4237 -0.0000 -0.0000 0.0000 -77.9244 0.4699 31.6106 21.6849 -32.6190 -6.4151 -0.0000 0.0000 -5.7010 25.0852 30.5728 13.3928 -7.1250 0.0000 -0.0000 -7.7513 62.9330 -3.3858 -0.0000 -0.0000 0.0000 88.5927 -3.8815 13.0032 -16.3057 25.9334 -3.7787 0.0000 0.0000 2.7353 -13.9306 16.6717 -4.0703 7.1250 -0.0000 -0.0000 9.2313 -12.9947 7.0128
1.0637 17.7696 8.7775 3.5574 2.3847 -1.7791 0.0000 0.0000 0.0000 -28.2144 1.3471 11.5497 0.8244 5.7932 16.1854 1.1580 -7.0582 -19.2196 0.5745 -4.8538 -13.4921 0.0000 0.0000 0.0000 12.1240 17.8923 -23.3155 -0.3423 -3.7595 10.4011 -0.0557 -11.2333 -16.7670 -0.7799 5.6382 -15.7383 -5.8243 -1.2315 6.8542 1.4727 -2.0370 0.5101 4.9975 -0.9291 -3.0599 -1.3812 -3.0225 -16.2124 0.3389 -3.8962 18.4560 -0.1242 -1.9023 8.4536 -0.0000 -0.0000 0.0000 -77.9193 0.3736 31.6208 21.7965 -32.7462 -6.4754 -0.0000 0.0000 -5.6891 24.7671 31.0219 13.3750 -7.1250 0.0000 -0.0000 -8.4174 63.3055 -3.7524 -0.0000 -0.0000 0.0000 88.6544 -4.0511 12.8421 -16.4726 26.1573 -3.8519 0.0000 0.0000 2.6541 -13.6459 16.7884 -4.0112 7.1250 -0.0000 -0.0000 9.4214 -12.9030 7.1796
1.0571 17.7371 8.9512 3.8963 2.3482 -1.8495 0.0000 0.0000 0.0000 -28.5305 1.7089 12.4015 0.7870 5.6633 15.8106 1.1421 -6.9102 -19.0849 0.6227 -5.0499 -14.0509 0.0000 0.0000 0.0000 12.3445 16.4547 -24.3615 -0.4298 -4.2075 11.6611 -0.1264 -9.7932 -15.8773 -0.7294 5.4566 -15.2156 -6.0942 -1.2313 6.9696 1.3597 -2.0662 0.5947 5.0365 -0.9439 -3.0274 -1.3157 -3.0393 -16.5371 0.3327 -3.9290 18.4070 -0.1458 -1.9124 8.4937 0.0000 0.0000 0.0000 -77.9078 0.3003 31.4698 21.9164 -32.8824 -6.5404 -0.0000 0.0000 -5.5297 24.6358 31.0380 13.3034 -7.1250 0.0000 -0.0000 -8.5851 63.2868 -3.8240 0.0000 0.0000 0.0000 88.6685 -4.1596 12.9225 -16.5683 26.2851 -3.8942 0.0000 0.0000 2.4135 -13.6015 17.0554 -4.0591 7.1250 -0.0000 -0.0000 9.4536 -12.6378 7.2581
1.0419 17.7072 9.1241 3.9333 2.2312 -1.9060 0.0000 0.0000 0.0000 -28.4613 2.0684 13.1061 0.7681 5.5966 15.6183 1.1161 -6.6759 -18.8627 0.7463 -5.5181 -15.3923 0.0000 0.0000 0.0000 12.7738 15.6582 -25.3359 -0.5530 -4.7637 13.2358 -0.1322 -8.9874 -14.9721 -0.7249 5.4402 -15.1684 -6.1860 -1.2528 7.0731 1.3775 -2.1072 0.6211 5.1139 -0.9630 -3.0485 -1.2861 -2.9977 -16.6521 0.3267 -3.8760 18.3784 -0.1478 -1.8855 8.5034 0.0000 -0.0000 0.0000 -77.9742 0.3391 31.1594 21.9826 -32.9573 -6.5764 -0.0000 0.0000 -5.1106 24.7595 30.1486 13.0419 -7.1250 0.0000 -0.0000 -7.8776 62.4143 -3.3453 0.0000 -0.0000 0.0000 88.5838 -4.2816 13.3220 -16.5932 26.3183 -3.9052 0.0000 0.0000 2.0760 -14.1689 16.9173 -4.2016 7.1250 -0.0000 -0.0000 9.0763 -12.7244 6.9439
1.0236 17.6784 9.2952 3.9160 2.1030 -1.8818 0.0000 0.0000 0.0000 -28.3600 2.2699 13.5926 0.7824 5.6470 15.7634 1.1440 -6.5924 -19.1013 1.1030 -6.6731 -18.7505 0.0000 0.0000 0.0000 13.1157 15.3217 -26.0945 -0.6805 -5.2745 14.6931 -0.1276 -8.6108 -14.4470 -0.6348 5.0977 -14.1875 -6.2398 -1.2191 7.1559 1.4206 -2.0724 0.5482 5.1915 -0.9382 -3.1722 -1.2536 -3.0032 -16.6840 0.2280 -3.8720 18.4897 -0.1874 -1.8913 8.5440 -0.0000 0.0000 0.0000 -78.0287 0.3633 31.1465 21.9443 -32.9140 -6.5556 -0.0000 0.0000 -5.1258 25.2394 29.8459 13.2030 -7.1250 0.0000 -0.0000 -7.1317 62.2291 -2.9955 -0.0000 0.0000 0.0000 88.6348 -4.3278 13.1175 -16.5150 26.2140 -3.8707 0.0000 0.0000 2.1181 -14.0800 17.5846 -4.3332 7.1250 -0.0000 -0.0000 9.1456 -12.0585 7.1268
